<?xml version="1.0" encoding="utf-8"?>
<!-- Generator: Adobe Illustrator 28.3.0, SVG Export Plug-In . SVG Version: 6.00 Build 0)  -->
<svg version="1.1" id="圖層_2" xmlns="http://www.w3.org/2000/svg" xmlns:xlink="http://www.w3.org/1999/xlink" x="0px" y="0px"
	 viewBox="0 0 530.5 87.6" style="enable-background:new 0 0 530.5 87.6;" xml:space="preserve">
<style type="text/css">
	.st0{fill:#111313;}
</style>
<g>
	<rect x="430.6" y="26.4" class="st0" width="8.7" height="59.6"/>
	<path class="st0" d="M114.4,8.8l-12.8,0l0,17.6l-10.1,0l0,10.7l10.1,0l0,29.1c0,2.9,0.3,5.6,0.8,8.2c0.5,2.5,1.4,4.7,2.8,6.6
		c1.3,1.9,3.2,3.4,5.5,4.5c2.3,1.1,5.4,1.6,9.1,1.6c1.6,0,3.2-0.1,5-0.4c1.5-0.3,2.8-0.6,4-1l-0.4-10.4c-0.7,0.3-1.4,0.5-2.2,0.6
		c-1.2,0.2-2.3,0.3-3.3,0.3c-3.5,0-5.8-1-6.8-3c-1-1.9-1.5-4.2-1.5-7.1l0-29l14.5,0l0-10.7l-14.5,0L114.4,8.8z"/>
	<path class="st0" d="M219,32.7c-2.4-2.7-5.3-4.7-8.6-6c-3.3-1.4-7-2-10.9-2c-4.2,0-8.2,0.8-11.9,2.3c-3.6,1.5-6.8,3.7-9.5,6.4
		c-2.7,2.7-4.8,6.1-6.3,10c-1.5,3.9-2.3,8.3-2.3,13.1c0,4.9,0.8,9.3,2.3,13.1c1.5,3.8,3.7,7.1,6.4,9.7c2.7,2.6,5.9,4.7,9.6,6.1
		c3.7,1.4,7.8,2.2,12.2,2.2c10.3,0,18.4-3.8,23.9-11.3l-8.6-7.2c-1.6,2.2-3.6,4-6,5.3c-2.6,1.4-5.8,2.2-9.5,2.2
		c-2.2,0-4.3-0.4-6.3-1.2c-2-0.8-3.8-1.9-5.4-3.2c-1.6-1.4-2.9-3-3.9-4.9c-1-1.9-1.5-4-1.7-6.3l-0.1-0.8l44.2,0
		c0-0.4,0.1-0.9,0.1-1.3v-2c0-5.4-0.7-10.1-2.1-14.2C223.4,38.7,221.4,35.3,219,32.7z M213.7,50.7l-31.2,0l0.1-0.8
		c0.3-4.5,2.1-8.2,5.2-11.1c3.1-2.9,7-4.3,11.5-4.3c2.4,0,4.6,0.4,6.4,1.3c1.8,0.8,3.3,2,4.5,3.4c1.2,1.4,2.1,3.1,2.6,4.9
		c0.5,1.8,0.8,3.8,0.8,5.8V50.7z"/>
	<rect x="64.8" y="26.4" class="st0" width="13.1" height="59.4"/>
	<rect x="142.8" y="26.4" class="st0" width="13.1" height="59.4"/>
	<polygon class="st0" points="65.2,16.1 79.1,16.1 87,0.3 73.2,0.3 	"/>
	<polygon class="st0" points="143.3,16.1 157.1,16.1 165.1,0.3 151.3,0.3 	"/>
	<path class="st0" d="M395.6,78.8c-12.3,0-22.3-9.9-22.4-22.2c0-12.3,9.9-22.3,22.2-22.4c5.7,0,10.9,2.1,14.9,5.6l5.9-6.5
		c-5.5-4.9-12.8-7.9-20.8-7.9c-17.2,0.1-31,14-31,31.2c0.1,17.2,14,31,31.2,31c8.1,0,15.4-3.1,20.9-8.2l-6-6.4
		C406.5,76.6,401.3,78.8,395.6,78.8z"/>
	<path class="st0" d="M278.3,58.1c-3.3-2.7-8.5-4.8-15.5-6.2c-4.9-1-8.5-2.2-10.8-3.7c-2.3-1.5-3.4-3.6-3.4-6.4c0-1.6,0.3-3,1.1-4.2
		c0.7-1.2,1.7-2.2,2.8-2.9c1.2-0.8,2.5-1.3,4-1.7c1.5-0.3,3-0.5,4.5-0.5c3.3,0,6.2,0.8,8.8,2.3c2.6,1.6,4.5,3.5,5.8,6l6.6-5
		c-2-3.4-4.9-6-8.8-7.8c-3.9-1.8-7.9-2.8-12-2.7c-2.7,0-5.3,0.4-7.8,1c-2.5,0.7-4.8,1.7-6.8,3.1c-2,1.4-3.6,3.2-4.7,5.3
		c-1.2,2.2-1.8,4.7-1.7,7.8c0,2.8,0.6,5.1,1.7,6.9c1.1,1.9,2.5,3.4,4.2,4.6c1.7,1.2,3.5,2.1,5.5,2.8c2,0.6,3.9,1.1,5.6,1.6
		c5.7,1.3,10,2.8,13,4.3c3,1.6,4.5,3.9,4.5,7c0,1.9-0.4,3.6-1.1,4.9c-0.8,1.3-1.8,2.4-3,3.2c-1.3,0.8-2.7,1.4-4.4,1.8
		c-1.7,0.3-3.5,0.5-5.3,0.5c-3.5,0-6.8-0.9-9.7-2.6c-3-1.8-5.2-3.9-6.7-6.6l-6.8,5.1c2.7,4,6.2,6.9,10.4,8.7c4.2,1.8,8.6,2.8,13,2.7
		c2.7,0,5.4-0.3,8-1c2.7-0.6,5-1.7,7.1-3.2c2.1-1.5,3.8-3.4,5.1-5.7c1.3-2.3,1.9-5.2,1.9-8.5C283.3,64.5,281.7,60.8,278.3,58.1z"/>
	<path class="st0" d="M503.1,71.5L503,45.6c0-3.6-0.6-6.8-1.8-9.5c-1.2-2.7-2.8-4.9-5-6.7c-2.1-1.8-4.6-3.1-7.3-4
		c-2.8-0.9-5.8-1.3-9-1.3c-5.1,0-9.6,0.8-13.6,2.4c-4,1.6-7.2,3.6-9.7,6.1l4.8,5.7c2.1-2.1,4.7-3.8,7.7-5.1c3-1.3,6.3-1.9,9.9-1.9
		c5.1,0,9.1,1.2,11.8,3.7c2.7,2.5,4.1,6.3,4.1,11.4l0,1.9c-5.4,0-10.6,0.2-15.6,0.6c-5,0.4-9.5,1.3-13.3,2.6c-3.9,1.3-7,3.3-9.3,6
		c-2.3,2.7-3.5,6.3-3.4,10.9c0,3.3,0.7,6.1,2,8.4c1.3,2.3,3,4.1,5,5.6c2,1.4,4.2,2.5,6.6,3.1c2.4,0.6,4.7,0.9,7,0.9
		c4.8,0,8.9-0.9,12.3-2.6c3.4-1.7,6.5-4.6,9.1-8.6l0.3,0c0,1.6,0.1,3.2,0.3,4.9c0.2,1.7,0.4,3.2,0.6,4.7l7.7,0
		c-0.3-1.7-0.6-3.7-0.8-6.2C503.2,76.2,503.1,73.8,503.1,71.5z M493.7,67.2c-0.8,2.4-2.1,4.5-3.6,6.3c-1.6,1.8-3.6,3.3-5.9,4.3
		c-2.4,1.1-5.1,1.6-8.1,1.6c-1.7,0-3.4-0.2-5-0.6c-1.6-0.4-3.1-1-4.5-1.9c-1.4-0.9-2.4-2-3.2-3.5c-0.8-1.4-1.2-3.2-1.2-5.3
		c0-2.8,0.9-5,2.8-6.7c1.8-1.7,4.2-3,7.1-3.9c2.9-0.9,6.1-1.5,9.7-1.8c3.6-0.3,7.1-0.5,10.7-0.5l2.5,0l0,4.4
		C494.9,62.3,494.5,64.8,493.7,67.2z"/>
	<polygon class="st0" points="430.5,16.1 440,16.1 445.4,5.3 435.9,5.3 	"/>
	<path class="st0" d="M323.8,25.4c-17.2,0.1-31,14-31,31.2c0.1,17.2,14,31,31.2,31c17.2-0.1,31-14,31-31.2S340.9,25.4,323.8,25.4z
		 M323.9,78.8c-12.3,0-22.3-9.9-22.4-22.2c0-12.3,9.9-22.3,22.2-22.4c12.3,0,22.3,9.9,22.4,22.2C346.2,68.7,336.3,78.7,323.9,78.8z"
		/>
	<path class="st0" d="M31.3,74.7c-10,0-18.1-8.3-18.1-18.4c0-10.2,8.1-18.4,18.1-18.4c4.6,0,8.9,1.8,12.1,4.7l8.7-9.7
		C46.6,28,39.3,25,31.3,25C14,25,0,39,0,56.3c0,17.3,14,31.3,31.3,31.3c8.2,0,15.6-3.1,21.2-8.3l-8.9-9.5
		C40.4,72.8,36.1,74.7,31.3,74.7z"/>
	<rect x="521.8" class="st0" width="8.7" height="86"/>
</g>
</svg>
